<svg width="16" height="16" version="1.1" viewBox="0 0 16 16" xmlns="http://www.w3.org/2000/svg">
 <g transform="translate(-.34957 -.8828)">
  <path d="m1.7894 1.8496c-0.60151 0.00206-1.0884 0.46014-1.0898 1.0254v10.25c-1.3816e-4 0.56587 0.48767 1.0248 1.0898 1.0254h7.6778l0.0039-0.0078-0.07226-0.10938-0.05859-0.11914-0.61719-0.08594-0.00781-2e-3c-0.19162-0.034673-0.34308-0.17812-0.39454-0.35934h-6.5314c-0.20056-5.62e-4 -0.36293-0.15333-0.36328-0.3418v-10.25c0.0023072-0.1877 0.16354-0.3394 0.36328-0.3418h13.12c0.19974 0.0024 0.36098 0.15409 0.36328 0.3418v7.2126l0.32812 0.04297 0.02149 0.0059c0.22906 0.05966 0.37906 0.26651 0.375 0.50195l0.0019-0.0059v-7.7575c-0.0015-0.56525-0.48833-1.0233-1.0898-1.0254zm2.0762 3.1758-0.51367 0.48242 2.2891 2.1504-2.2891 2.1504 0.51367 0.48438 2.8027-2.6348zm2.6792 4.3418v0.68359h3.6367v-0.68359z" fill="#ced0d6"/>
  <g class="jp-icon3" transform="matrix(.81 0 0 .81 19.902 14.175)" fill="#548af7">
   <path d="m-9.3806-4.323-0.00195 2e-3 -1.0371 0.59766c-0.21396 0.11932-0.31085 0.3831-0.22656 0.61328l2e-3 0.0059 0.24024 0.58594-0.125 0.21484-0.625 0.0918c-0.25361 0.02846-0.42204 0.26168-0.42578 0.48633l-2e-3 0.0039v1.2031c3.32e-4 0.24086 0.17705 0.45121 0.41406 0.49414l0.0078 2e-3 0.61719 0.08594 0.05859 0.11914 0.07227 0.10938-0.23438 0.57812-0.0019 0.0078c-0.08059 0.22618 0.0132 0.48277 0.2207 0.60352h2e-3l1.041 0.60156 0.00391 2e-3c0.19624 0.10966 0.48528 0.07994 0.63672-0.12891l0.39258-0.49609 0.24609 2e-3 0.38672 0.50195 0.00586 0.0059c0.15699 0.18753 0.43242 0.23448 0.64258 0.10938l1.0352-0.59791c0.21134-0.12108 0.29504-0.38863 0.2207-0.60156l-0.00195-0.0059-0.23047-0.60156 0.11523-0.20703 0.625-0.08789h0.00195c0.24893-0.03609 0.43324-0.26225 0.41992-0.51367l0.00195 0.01758v-1.1992l-0.00195 0.0059c0.00406-0.23544-0.14594-0.44229-0.375-0.50195l-0.021484-0.0059-0.64258-0.08398-0.056641-0.11523-0.072266-0.10742 0.25195-0.60156 0.00586-0.02734c0.053855-0.22242-0.049238-0.45845-0.25-0.56836l-1.0195-0.58786c-0.21063-0.13525-0.4971-0.084739-0.65234 0.11133l-0.39062 0.49609-0.23633-2e-3 -0.4043-0.49605c-0.15222-0.18707-0.42272-0.23949-0.63281-0.12109zm0.19727 0.69336 0.50391 0.61914 0.91016 0.011719 0.49023-0.62891 0.74805 0.43359-0.3125 0.74609 0.25586 0.38086 0.20312 0.41016 0.80078 0.10352v0.86328l-0.78906 0.11133-0.44531 0.79492 0.28516 0.74414-0.74414 0.42969-0.48438-0.62891h-0.92773l-0.49805 0.62695-0.74023-0.42578 0.30469-0.75195-0.25391-0.37891-0.20117-0.41016-0.80273-0.11133v-0.85352l0.78711-0.11523 0.46875-0.80469-0.30273-0.73633zm0.76953 1.1211c-0.51922 0.06774-1.0143 0.43641-1.1719 1.0254-0.15761 0.58898 0.085954 1.1566 0.50195 1.4746 0.41553 0.31764 1.0261 0.4031 1.5527 0.09766 3.694e-4 -2.13e-4 0.00158 2.13e-4 0.00195 0 0.66389-0.38312 0.89404-1.2429 0.50977-1.9063-0.30341-0.52891-0.87531-0.75914-1.3945-0.69141zm0.089844 0.69336c0.26617-0.03472 0.53439 0.06177 0.69727 0.3457v2e-3h0.00195c0.19546 0.33624 0.081407 0.75749-0.25586 0.95117-0.28291 0.16464-0.56409 0.11419-0.77734-0.04883-0.21326-0.16302-0.33655-0.42018-0.25195-0.73633 0.0846-0.31614 0.31977-0.47895 0.58594-0.51367z" fill="#548af7"/>
  </g>
 </g>
</svg>
