<svg width="16" height="16" fill="none" version="1.1" viewBox="0 0 16 16" xmlns="http://www.w3.org/2000/svg">
 <path d="m14.409 1.8489-12.818 2e-4c-0.60171 0.00155-1.0891 0.45954-1.0908 1.025v10.252c1.1751e-4 0.56609 0.48843 1.0249 1.0908 1.025l12.818-2e-4c0.60236-5.2e-5 1.0907-0.45891 1.0908-1.025v-10.252c-0.0017-0.56546-0.48908-1.0235-1.0908-1.025zm0.36376 11.277c-3.34e-4 0.18866-0.163 0.34151-0.36376 0.34183l-12.818 2e-4c-0.20076-3.16e-4 -0.36343-0.15317-0.36376-0.34183v-10.252c0.0022939-0.18789 0.16382-0.33967 0.36376-0.34183l12.818-2e-4c0.19994 0.00216 0.36147 0.15394 0.36376 0.34183zm-11.106-2.8333-0.5141-0.48333 2.288-2.1507-2.2887-2.15 0.5141-0.48333 2.8029 2.6333zm7.0154-0.24188h-3.6364v-0.68344h3.6364z" fill="#ced0d6"/>
</svg>
